<svg width="150" height="150" viewBox="0 0 150 150" fill="none" xmlns="http://www.w3.org/2000/svg">
<path d="M135 0H45C36.75 0 30 6.75 30 15V105C30 113.25 36.75 120 45 120H135C143.25 120 150 113.25 150 105V15C150 6.75 143.25 0 135 0ZM71.25 56.25C71.25 62.475 66.225 67.5 60 67.5H52.5V82.5H41.25V37.5H60C66.225 37.5 71.25 42.525 71.25 48.75V56.25ZM108.75 71.25C108.75 77.475 103.725 82.5 97.5 82.5H78.75V37.5H97.5C103.725 37.5 108.75 42.525 108.75 48.75V71.25ZM138.75 48.75H127.5V56.25H138.75V67.5H127.5V82.5H116.25V37.5H138.75V48.75ZM52.5 56.25H60V48.75H52.5V56.25ZM15 30H0V135C0 143.25 6.75 150 15 150H120V135H15V30ZM90 71.25H97.5V48.75H90V71.25Z" fill="#979797"/>
</svg>
