<svg width="100" height="100" viewBox="0 0 100 100" fill="none" xmlns="http://www.w3.org/2000/svg">
<rect width="100" height="100" rx="50" fill="#262626"/>
<circle cx="50" cy="50" r="42" stroke="#FF861B" stroke-width="3"/>
<path d="M57.5 34.5H42.5L49 66H51L57.5 34.5Z" fill="#FF861B"/>
<line x1="41" y1="36.5" x2="59" y2="36.5" stroke="#262626"/>
<line x1="41" y1="39.5" x2="59" y2="39.5" stroke="#262626"/>
<line x1="41" y1="42.5" x2="59" y2="42.5" stroke="#262626"/>
<line x1="41" y1="45.5" x2="59" y2="45.5" stroke="#262626"/>
<line x1="41" y1="48.5" x2="59" y2="48.5" stroke="#262626"/>
<line x1="41" y1="51.5" x2="59" y2="51.5" stroke="#262626"/>
<line x1="41" y1="54.5" x2="59" y2="54.5" stroke="#262626"/>
<line x1="41" y1="57.5" x2="59" y2="57.5" stroke="#262626"/>
<line x1="41" y1="60.5" x2="59" y2="60.5" stroke="#262626"/>
<line x1="41" y1="63.5" x2="59" y2="63.5" stroke="#262626"/>
<path d="M41.5781 66H48.0664L41.4707 34.5039H27.4844C25.0781 34.5039 23.209 34.7546 21.877 35.2559C20.5306 35.7428 19.4492 36.6452 18.6328 37.9629C17.8021 39.2806 17.3867 40.8776 17.3867 42.7539C17.3867 45.4323 18.1888 47.6452 19.793 49.3926C21.3971 51.1257 23.8249 52.1999 27.0762 52.6152C26.2454 53.36 25.4648 54.3411 24.7344 55.5586C23.2878 58.0221 21.6764 61.5026 19.9004 66H26.8613C27.4199 64.224 28.5156 61.4525 30.1484 57.6855C31.0365 55.6517 31.9818 54.2839 32.9844 53.582C33.6003 53.1667 34.6745 52.959 36.207 52.959H38.8496L41.5781 66ZM37.8613 48.2324H34.4238C30.9434 48.2324 28.6374 48.0247 27.5059 47.6094C26.36 47.194 25.4648 46.5423 24.8203 45.6543C24.1758 44.7663 23.8535 43.8353 23.8535 42.8613C23.8535 41.7155 24.319 40.8561 25.25 40.2832C25.8229 39.9395 27.0618 39.7676 28.9668 39.7676H36.0996L37.8613 48.2324Z" fill="#FF861B"/>
<path d="M51.9434 66L58.5176 34.5039H65.0059L62.2129 47.8887L76.7793 34.5039H85.459L71.3223 46.8574L81.6992 66H74.373L66.5957 51.0039L60.4727 56.3535L58.4531 66H51.9434Z" fill="#FF861B"/>
</svg>
